<svg id="Capa_1" enable-background="new 0 0 512 512" height="512" viewBox="0 0 512 512" width="512" xmlns="http://www.w3.org/2000/svg"><g><g><path d="m407.702 504.505h-303.405c-6.241 0-11.3-5.059-11.3-11.3v-474.41c0-6.241 5.059-11.3 11.3-11.3h303.405c6.241 0 11.3 5.059 11.3 11.3v474.41c0 6.241-5.059 11.3-11.3 11.3z" fill="#fd9468"/></g><g><path d="m419.002 18.794v474.412c0 6.236-5.06 11.296-11.296 11.296h-19.922c6.236 0 11.296-5.06 11.296-11.296v-474.412c0-6.236-5.06-11.296-11.296-11.296h19.922c6.236 0 11.296 5.061 11.296 11.296z" fill="#fe7d43"/></g><g><path d="m383.484 89.527v332.946c0 2.394-1.734 4.425-4.094 4.824-18.407 3.107-33.019 17.358-36.666 35.571-.458 2.287-2.462 3.935-4.794 3.935h-163.861c-2.333 0-4.336-1.648-4.794-3.935-3.647-18.213-18.259-32.464-36.666-35.571-2.36-.398-4.094-2.43-4.094-4.824v-332.946c0-2.394 1.734-4.425 4.094-4.824 18.407-3.107 33.019-17.358 36.666-35.571.458-2.287 2.462-3.935 4.794-3.935h163.861c2.333 0 4.336 1.648 4.794 3.935 3.647 18.213 18.259 32.464 36.666 35.571 2.361.399 4.094 2.43 4.094 4.824z" fill="#fff2e2"/></g><g><path d="m383.481 89.527v332.946c0 2.391-1.733 4.423-4.094 4.821-18.408 3.108-33.011 17.362-36.667 35.571-.458 2.291-2.46 3.935-4.791 3.935h-19.922c2.331 0 4.333-1.644 4.791-3.935 3.656-18.209 18.259-46.916 36.667-50.024 2.361-.398 4.094-2.43 4.094-4.821v-307.745c0-2.401-1.733-4.423-4.094-4.821-18.408-3.108-33.011-28.11-36.667-46.319-.458-2.291-2.46-3.935-4.791-3.935h19.922c2.331 0 4.333 1.644 4.791 3.935 3.656 18.209 18.259 32.463 36.667 35.571 2.361.398 4.094 2.43 4.094 4.821z" fill="#fee8c7"/></g><g><path d="m252.264 166.457-87.657 174.956c-1.392 2.778.628 6.049 3.735 6.049h87.658 87.657c3.107 0 5.127-3.271 3.735-6.049l-87.657-174.956c-1.541-3.076-5.93-3.076-7.471 0z" fill="#aca6d6"/></g><g><path d="m343.657 347.457h-17.183c-.01-.03-.02-.07-.04-.1l-82.408-164.466 8.238-16.436c1.544-3.078 5.927-3.078 7.471 0l87.657 174.955c1.395 2.78-.627 6.047-3.735 6.047z" fill="#978ecb"/></g><g><path d="m255.999 238.979c-11.18-.041-21.804 2.926-32.07 7.444-15.007 6.604-28.32 16.876-38.95 29.638 10.63 12.761 23.944 23.034 38.95 29.638 10.266 4.518 20.89 7.485 32.07 7.444 27.071-.098 53.822-16.433 71.022-37.082-17.2-20.649-43.951-36.984-71.022-37.082z" fill="#f3f0f3"/></g><g><path d="m327.022 276.057c-17.203 20.649-43.948 36.985-71.022 37.085-11.176.04-21.805-2.928-32.075-7.441-15.001-6.604-28.319-16.874-38.948-29.644.399-.478.797-.946 1.215-1.415 7.78 6.664 16.446 12.172 25.759 16.276 10.27 4.522 20.898 7.491 32.075 7.451 26.447-.1 52.584-15.689 69.807-35.66 4.822 4.124 9.255 8.626 13.189 13.348z" fill="#e8edf2"/></g><g><circle cx="256" cy="276.061" fill="#fec165" r="37.082"/></g><g><path d="m293.085 276.057c0 20.48-16.605 37.085-37.085 37.085-11.047 0-20.968-4.831-27.751-12.491 3.187.896 6.554 1.375 10.031 1.375 20.48 0 37.085-16.605 37.085-37.085 0-9.423-3.516-18.039-9.313-24.584 15.598 4.382 27.033 18.706 27.033 35.7z" fill="#fdb441"/></g><g><path d="m218.355 234.136s-30.501-8.018-34.113-47.399c-.425-4.638 4.715-7.709 8.633-5.191 10.252 6.589 27.546 16.549 42.164 19.29z" fill="#fec165"/></g><g><path d="m293.664 234.136s30.501-8.018 34.113-47.399c.425-4.638-4.715-7.709-8.633-5.191-10.252 6.589-27.546 16.549-42.164 19.29z" fill="#fec165"/></g><g><path d="m327.779 186.736c-3.616 39.386-34.117 47.404-34.117 47.404l-6.465-12.899c7.889-3.715 23.08-13.736 28-37.214 1.405-.866 2.719-1.693 3.945-2.48 3.916-2.52 9.055.558 8.637 5.189z" fill="#fdb441"/></g><g><circle cx="256" cy="276.06" r="8.676"/><path d="m158.411 349.417c2.142 3.469 5.855 5.54 9.932 5.54h103.643c4.14 0 7.495-3.356 7.495-7.495s-3.355-7.495-7.495-7.495h-98.27l21.622-43.156c7.875 6.425 16.495 11.753 25.572 15.748 15.998 7.041 33.195 9.992 50.597 6.453 8.189-1.665 16.117-4.522 23.597-8.233 5.073-2.517 9.948-5.431 14.586-8.679 2.39-1.674 4.717-3.437 6.975-5.284l21.62 43.151h-31.641c-4.14 0-7.495 3.356-7.495 7.495s3.355 7.495 7.495 7.495h37.014c4.076 0 7.79-2.071 9.932-5.54s2.331-7.716.504-11.362l-26.006-51.907c1.609-1.714 3.179-3.474 4.693-5.292 2.315-2.779 2.315-6.815 0-9.594-6.699-8.042-14.381-15.08-22.632-20.918l-6.218-12.411c10.791-5.664 28.47-19.549 31.31-50.512.46-5.007-1.93-9.741-6.236-12.355-4.328-2.626-9.658-2.56-13.914.174-7.742 4.976-21.609 13.181-34.103 16.902l-14.552-29.044c-1.992-3.975-5.991-6.444-10.436-6.443-4.446 0-8.445 2.469-10.435 6.444l-14.549 29.038c-12.487-3.723-26.348-11.923-34.087-16.896-4.254-2.734-9.584-2.8-13.912-.175-4.306 2.614-6.696 7.349-6.237 12.356 2.839 30.948 20.502 44.834 31.295 50.503l-6.242 12.459c-8.316 5.859-15.957 12.891-22.612 20.879-2.315 2.779-2.315 6.815 0 9.594 1.513 1.816 3.08 3.58 4.691 5.295l-26.004 51.902c-1.828 3.646-1.639 7.894.503 11.363zm127.167-72.61c-.413 16.607-14.628 29.198-30.93 28.806-.063-.001-.125-.004-.188-.006-15.601-.804-28.046-13.749-28.046-29.547 0-15.797 12.445-28.742 28.045-29.547.067-.002.134-.005.2-.006 16.4-.359 30.65 12.335 30.924 29.06.003.164.004.328.004.492 0 .25-.003.499-.009.748zm31.435-.746c-5.934 6.302-12.539 11.762-19.502 16.216 1.972-5.03 3.067-10.496 3.067-16.216s-1.095-11.187-3.067-16.216c6.963 4.454 13.567 9.914 19.502 16.216zm2.826-86.091c-3.187 21.127-15.339 30.674-22.599 34.571l-9.435-18.832c11.293-3.751 22.882-10.067 32.034-15.739zm-63.839-14.237 31.09 62.052c-9.46-3.728-19.149-5.875-28.59-6.228-5.868-.22-11.813.304-17.568 1.476-5.501 1.12-10.876 2.811-16.089 4.886zm-63.821 14.237c9.154 5.673 20.744 11.988 32.036 15.74l-9.435 18.832c-7.261-3.898-19.412-13.445-22.601-34.572zm22.26 70.001c-1.94 4.995-3.017 10.417-3.017 16.089s1.076 11.094 3.016 16.089c-7.033-4.46-13.592-9.877-19.45-16.089 5.86-6.212 12.419-11.629 19.451-16.089z"/><path d="m407.702 0h-216.533c-4.139 0-7.495 3.356-7.495 7.495s3.356 7.495 7.495 7.495h216.533c2.098 0 3.805 1.707 3.805 3.805v474.411c0 2.098-1.707 3.805-3.805 3.805h-303.405c-2.098 0-3.804-1.707-3.804-3.805v-474.411c0-2.098 1.706-3.805 3.804-3.805h51.909c4.139 0 7.495-3.356 7.495-7.495s-3.355-7.495-7.495-7.495h-51.909c-10.363 0-18.794 8.431-18.794 18.795v474.411c0 10.363 8.431 18.795 18.794 18.795h303.405c10.363 0 18.795-8.431 18.795-18.795v-474.411c0-10.364-8.432-18.795-18.795-18.795z"/><path d="m131.362 77.313c-5.993 1.011-10.342 6.148-10.342 12.214v332.946c0 6.066 4.35 11.203 10.342 12.214 15.245 2.573 27.528 14.488 30.564 29.652 1.156 5.77 6.263 9.958 12.143 9.958h163.861c5.88 0 10.987-4.187 12.143-9.958 3.037-15.163 15.319-27.079 30.563-29.651 5.993-1.011 10.343-6.148 10.343-12.214v-332.947c0-6.066-4.35-11.204-10.342-12.214-15.245-2.573-27.527-14.488-30.564-29.653-1.156-5.769-6.264-9.956-12.143-9.956h-163.861c-5.88 0-10.987 4.188-12.143 9.958-3.036 15.162-15.319 27.078-30.564 29.651zm44.798-24.62h159.679c4.754 19.506 20.518 34.813 40.15 38.99v328.633c-19.634 4.176-35.398 19.483-40.15 38.99h-159.679c-4.754-19.506-20.517-34.814-40.15-38.99v-328.633c19.634-4.176 35.398-19.482 40.15-38.99z"/><path d="m301.343 419.334c-4.14 0-7.495 3.356-7.495 7.495v5.898c0 4.139 3.355 7.495 7.495 7.495s7.495-3.356 7.495-7.495v-5.898c0-4.139-3.355-7.495-7.495-7.495z"/><path d="m210.657 419.334c-4.139 0-7.495 3.356-7.495 7.495v5.898c0 4.139 3.356 7.495 7.495 7.495s7.495-3.356 7.495-7.495v-5.898c0-4.139-3.356-7.495-7.495-7.495z"/><path d="m258.949 422.283h-5.898c-4.139 0-7.495 3.356-7.495 7.495s3.356 7.495 7.495 7.495h5.898c4.14 0 7.495-3.356 7.495-7.495 0-4.14-3.355-7.495-7.495-7.495z"/><path d="m301.343 92.278c4.14 0 7.495-3.356 7.495-7.495v-5.898c0-4.139-3.355-7.495-7.495-7.495s-7.495 3.356-7.495 7.495v5.898c0 4.139 3.355 7.495 7.495 7.495z"/><path d="m210.657 92.278c4.139 0 7.495-3.356 7.495-7.495v-5.898c0-4.139-3.356-7.495-7.495-7.495s-7.495 3.356-7.495 7.495v5.898c0 4.139 3.355 7.495 7.495 7.495z"/><path d="m253.051 89.329h5.898c4.14 0 7.495-3.356 7.495-7.495s-3.355-7.495-7.495-7.495h-5.898c-4.139 0-7.495 3.356-7.495 7.495s3.355 7.495 7.495 7.495z"/></g></g></svg>