<?xml version="1.0" standalone="no"?>
<!DOCTYPE svg PUBLIC "-//W3C//DTD SVG 20010904//EN"
 "http://www.w3.org/TR/2001/REC-SVG-20010904/DTD/svg10.dtd">
<svg version="1.0" xmlns="http://www.w3.org/2000/svg"
 width="727.000000pt" height="449.000000pt" viewBox="0 0 727.000000 449.000000"
 preserveAspectRatio="xMidYMid meet">
<metadata>
Created by potrace 1.16, written by Peter Selinger 2001-2019
</metadata>
<g transform="translate(0.000000,449.000000) scale(0.100000,-0.100000)"
fill="#000000" stroke="none">
<path d="M2493 4139 c-136 -67 -370 -408 -648 -942 -65 -126 -92 -168 -108
-172 -12 -2 -52 -9 -89 -15 -239 -38 -442 -143 -514 -266 -31 -52 -41 -140
-25 -201 17 -63 88 -161 163 -223 281 -236 800 -381 1308 -367 107 3 225 12
280 22 273 49 470 156 536 290 71 146 -16 321 -230 464 -77 52 -269 151 -293
151 -15 0 -14 -3 -107 400 -98 421 -116 512 -116 572 0 53 20 102 45 112 23 8
73 -15 124 -58 61 -51 72 -34 30 45 -42 78 -123 163 -181 189 -56 26 -122 25
-175 -1z m-594 -1460 c70 -70 102 -94 171 -127 109 -52 208 -72 357 -72 184 0
314 36 422 115 32 24 62 41 65 38 11 -11 6 -79 -8 -126 -27 -91 -94 -150 -212
-186 -298 -93 -744 6 -908 200 -82 96 -115 247 -81 364 l17 59 46 -89 c36 -70
64 -109 131 -176z"/>
<path d="M5954 2807 c-3 -8 -4 -45 -2 -83 l3 -69 83 -3 82 -3 0 86 0 85 -80 0
c-58 0 -82 -4 -86 -13z"/>
<path d="M4573 2785 c-103 -32 -194 -113 -241 -213 -24 -51 -27 -68 -27 -172
0 -108 2 -119 31 -181 44 -92 93 -142 181 -186 65 -32 86 -37 163 -41 61 -3
103 0 141 12 l54 16 25 -30 c24 -29 28 -30 113 -30 57 0 87 4 87 11 0 6 -22
39 -49 74 l-49 62 34 48 c55 79 69 127 69 245 0 97 -2 110 -31 170 -53 113
-131 181 -243 214 -66 19 -199 20 -258 1z m232 -149 c99 -46 150 -136 143
-253 -2 -37 -12 -86 -22 -108 l-17 -40 -25 30 c-78 93 -64 85 -158 85 -48 0
-86 -4 -86 -10 0 -5 32 -51 71 -102 69 -90 70 -92 47 -101 -34 -13 -119 -2
-164 21 -111 57 -162 191 -124 327 17 60 95 145 150 162 60 19 130 15 185 -11z"/>
<path d="M5234 2556 c-3 -8 -4 -104 -2 -213 3 -196 3 -199 31 -245 40 -69 99
-100 197 -106 63 -4 85 -1 125 17 57 25 55 25 55 6 0 -12 15 -15 75 -15 l75 0
-2 283 -3 282 -70 0 -70 0 -5 -170 c-5 -176 -9 -192 -53 -234 -51 -47 -157
-35 -189 22 -9 14 -15 83 -18 202 l-5 180 -68 3 c-52 2 -69 0 -73 -12z"/>
<path d="M5967 2564 c-4 -4 -7 -133 -7 -286 l0 -278 75 0 75 0 -2 283 -3 282
-65 3 c-36 2 -69 0 -73 -4z"/>
<path d="M6267 2564 c-4 -4 -7 -36 -7 -71 l0 -63 153 0 152 -1 -153 -147 -153
-147 1 -67 0 -68 260 0 260 0 0 70 0 70 -152 0 -153 1 153 147 153 147 -3 65
-3 65 -251 3 c-138 1 -253 -1 -257 -4z"/>
<path d="M356 2333 c-12 -41 -26 -140 -26 -180 0 -67 28 -190 59 -258 35 -75
116 -185 136 -185 10 0 -1 22 -35 66 -58 76 -75 106 -101 183 -39 113 -44 244
-13 367 7 28 -12 33 -20 7z"/>
<path d="M3405 2018 c0 -141 -9 -186 -62 -293 -40 -80 -125 -175 -208 -232
-20 -13 -36 -36 -43 -61 -14 -47 -15 -52 -3 -52 5 0 15 18 23 39 10 29 29 51
74 84 137 101 229 271 241 448 6 87 -3 199 -15 199 -4 0 -7 -60 -7 -132z"/>
<path d="M1335 1721 c-76 -13 -135 -31 -135 -41 0 -13 2 -13 67 6 30 9 57 13
61 10 3 -4 -24 -82 -61 -174 -37 -92 -67 -171 -67 -175 0 -4 41 -7 91 -7 69 0
90 -3 86 -12 -31 -77 -77 -199 -77 -208 0 -5 4 -10 9 -10 5 0 27 48 49 108 22
59 43 115 47 125 7 15 -1 17 -84 17 -50 0 -91 4 -91 8 0 4 29 79 64 167 74
186 71 183 198 166 85 -11 109 -8 65 8 -38 15 -164 21 -222 12z"/>
<path d="M2340 1232 l0 -269 -40 -18 c-22 -10 -40 -22 -40 -27 0 -12 17 -10
50 7 l30 16 0 -111 0 -110 80 0 80 0 0 160 0 160 195 0 195 0 0 64 c0 63 0 64
38 87 26 16 32 24 21 26 -9 2 -32 -5 -50 -16 -31 -19 -50 -21 -216 -21 l-183
0 0 90 0 90 195 0 195 0 0 70 0 70 -275 0 -275 0 0 -268z"/>
<path d="M1780 1443 c-47 -6 -64 -23 -22 -23 18 0 32 -2 32 -5 0 -2 -70 -93
-155 -202 -85 -109 -155 -201 -155 -205 0 -5 29 -8 65 -8 36 0 65 -3 65 -6 0
-3 -20 -34 -45 -68 -47 -66 -51 -76 -36 -76 10 0 108 130 118 156 4 11 -8 14
-61 14 -36 0 -66 2 -66 5 0 3 70 95 155 204 140 180 170 224 148 219 -5 0 -24
-3 -43 -5z"/>
<path d="M4477 1403 c-4 -3 -7 -32 -7 -64 l0 -58 -47 -3 -48 -3 0 -60 0 -60
46 -3 47 -3 4 -152 c5 -174 14 -201 80 -244 37 -25 52 -28 144 -31 l104 -4 0
66 0 66 -65 0 c-100 0 -105 9 -105 170 l0 130 85 0 85 0 0 65 0 65 -85 0 -85
0 0 65 0 65 -73 0 c-41 0 -77 -3 -80 -7z"/>
<path d="M3193 1290 c-57 -12 -112 -42 -150 -82 -34 -35 -67 -101 -56 -112 4
-3 38 -6 76 -6 61 0 71 3 88 24 41 52 167 60 216 15 41 -40 31 -46 -89 -53
-179 -10 -254 -47 -278 -134 -22 -84 17 -174 93 -214 59 -31 193 -31 254 0 35
18 42 19 47 7 4 -11 24 -15 81 -15 l75 0 0 188 c0 103 -5 204 -11 225 -14 52
-69 110 -127 135 -56 24 -159 35 -219 22z m197 -358 c0 -61 -57 -102 -145
-102 -42 0 -60 5 -75 20 -35 35 -20 84 30 103 8 3 54 6 103 6 l87 1 0 -28z"/>
<path d="M3951 1290 c-24 -5 -54 -16 -67 -25 -22 -14 -25 -14 -30 0 -5 12 -23
15 -80 15 l-74 0 0 -280 0 -280 75 0 75 0 0 138 c1 160 11 216 48 255 50 53
140 54 191 2 26 -25 26 -27 29 -210 l3 -185 75 0 74 0 0 203 c0 174 -3 208
-19 242 -20 45 -69 91 -118 111 -43 18 -129 25 -182 14z"/>
<path d="M5090 1290 c-88 -19 -182 -99 -196 -168 l-6 -32 75 0 c68 0 76 2 90
24 21 32 78 50 138 43 55 -7 84 -22 97 -52 10 -22 8 -22 -102 -28 -141 -9
-201 -26 -246 -72 -31 -32 -35 -42 -38 -103 -4 -88 21 -135 93 -171 42 -22 62
-26 130 -25 73 1 103 8 168 42 4 2 7 -3 7 -12 0 -13 13 -16 75 -16 l75 0 0
193 c0 105 -5 209 -11 230 -13 50 -77 111 -136 131 -59 20 -156 27 -213 16z
m206 -362 c-12 -61 -66 -98 -144 -98 -82 0 -132 60 -84 102 24 22 44 26 146
27 l89 1 -7 -32z"/>
<path d="M5751 1289 c-103 -20 -171 -92 -171 -181 0 -107 62 -151 242 -172 65
-7 124 -19 133 -26 42 -35 -8 -80 -90 -80 -53 0 -102 18 -129 49 -16 18 -30
21 -93 21 -70 0 -73 -1 -73 -23 0 -35 53 -102 102 -131 61 -36 170 -52 255
-38 125 21 193 87 193 187 0 109 -59 150 -242 170 -128 14 -155 26 -144 63 16
50 150 54 211 7 29 -22 44 -25 109 -25 42 0 76 2 76 5 0 15 -35 73 -59 98 -64
69 -196 101 -320 76z"/>
<path d="M6199 1218 c15 -35 69 -154 120 -264 50 -111 91 -207 91 -213 0 -23
-40 -89 -66 -110 -18 -14 -41 -21 -70 -21 l-44 0 0 -65 0 -65 75 0 c42 0 90 6
108 14 43 17 83 66 117 141 110 240 283 622 287 633 4 10 -13 12 -78 10 l-83
-3 -75 -167 c-41 -93 -78 -168 -81 -168 -4 0 -41 75 -82 168 l-76 167 -86 3
-86 3 29 -63z"/>
<path d="M1260 1024 c-6 -16 -16 -42 -22 -58 -10 -25 -9 -31 8 -43 10 -7 36
-19 56 -25 21 -6 38 -15 38 -20 0 -5 -43 -127 -95 -270 -93 -254 -105 -296
-85 -283 23 14 210 290 200 293 -6 2 -12 2 -14 1 -1 -2 -33 -46 -69 -98 -37
-52 -67 -89 -67 -84 0 6 36 109 80 229 44 119 80 221 80 225 0 4 -23 15 -51
25 -28 11 -53 24 -56 30 -2 7 3 29 12 50 10 25 12 41 6 47 -7 7 -14 0 -21 -19z"/>
</g>
</svg>
